<svg width="20" height="20" viewBox="0 0 20 20" fill="none" xmlns="http://www.w3.org/2000/svg">
<path d="M17.4118 17.8907L16.858 17.6951C16.8598 17.6553 16.8566 17.6154 16.8487 17.5763C16.8487 17.5763 16.098 17.141 15.219 17.3242C14.3399 17.5073 13.4796 18.0201 12.9118 17.837C12.7871 17.7967 12.6302 17.7004 12.4437 17.5779C13.1846 17.3448 14.0277 17.2407 14.2483 16.8482C14.578 16.2623 15.3196 16.2207 15.3196 16.2207C15.3196 16.1626 15.3108 16.1138 15.2974 16.0704L15.8868 15.9632C15.918 15.9576 15.9349 15.8985 15.9233 15.832C15.9124 15.7654 15.878 15.7167 15.8465 15.7226L15.1321 15.8554C15.023 15.7876 14.9077 15.7801 14.9077 15.7801C13.988 15.721 14.2118 16.7751 13.0033 16.7751C12.5271 16.7751 12.2321 16.9926 11.9137 17.2288C11.4365 16.9248 10.8315 16.5948 10.0912 16.4413C11.633 15.9776 13.5937 15.6351 15.0412 14.7817C18.5612 12.707 20.593 9.57041 18.5768 6.00666C16.5633 2.44479 10.8205 -2.52646 8.55771 3.31385C7.60521 5.77229 6.75865 7.33354 6.11771 8.43698C6.5449 7.57104 7.11521 6.21479 7.41303 4.65291C4.0199 6.36354 4.11053 9.68447 4.32428 11.0989C4.25796 11.1221 4.19402 11.1516 4.13334 11.187L1.30084 12.8557C0.3624 13.4089 0.406775 15.2842 1.39959 17.0401C2.18646 18.4307 3.33021 19.3288 4.23928 19.3698L4.23521 19.3751C4.25334 19.3751 4.27053 19.3732 4.28865 19.3729C4.31459 19.3732 4.33959 19.3713 4.3649 19.3701C5.6349 19.3188 6.53178 18.5426 7.2999 18.451C8.29115 18.3332 10.674 18.9014 11.5083 18.0676C11.5566 18.0199 11.6087 17.9761 11.664 17.9367C12.1824 18.3188 12.7043 18.5785 13.4333 18.3326C14.5412 17.9585 15.5665 17.6748 16.7383 18.0367C16.7383 18.0367 16.7696 17.9957 16.7999 17.9307L17.3262 18.1192C17.3562 18.1301 17.3993 18.0873 17.4233 18.0245C17.4465 17.961 17.4415 17.9017 17.4118 17.8907ZM12.1027 1.85948C13.0337 1.31073 16.0493 3.54041 17.409 5.9451C18.7696 8.35041 16.6149 8.81854 15.2543 6.41323C13.8949 4.00916 10.5696 2.76416 12.1027 1.85948ZM4.4074 18.3517C3.76896 18.7288 2.66553 17.9982 1.94334 16.7201C1.22021 15.441 1.15271 14.1001 1.79084 13.7229C2.4299 13.3476 3.53303 14.0788 4.25646 15.3563C4.97865 16.6335 5.04646 17.9754 4.4074 18.3517ZM5.98646 18.0676C6.09521 17.1417 5.82803 15.9632 5.18178 14.8188C4.54928 13.7001 3.67209 12.8492 2.81521 12.4732L4.35678 11.5651C4.46936 11.5006 4.59739 11.4681 4.72709 11.471C5.38771 11.471 6.46615 12.196 7.24928 13.5817C8.18396 15.2357 8.13553 16.8004 7.50709 17.1701L5.98646 18.0676ZM9.52396 17.7248C8.83334 17.586 8.15053 17.5929 7.52771 17.6695L8.58084 17.0485C8.76884 16.9403 8.9641 16.8452 9.16521 16.7639C9.65584 16.8113 10.3343 16.9429 10.8302 17.2964C10.9818 17.4048 11.1262 17.5182 11.2671 17.6298C10.8721 17.8045 10.348 17.8907 9.52396 17.7248Z" fill="white"/>
</svg>
